<svg width="42" height="20" viewBox="0 0 42 20" fill="none" xmlns="http://www.w3.org/2000/svg">
<path d="M41 10C41 14.9706 36.9706 19 32 19C31.2292 19 29.8664 18.7607 28.0384 18.3099C26.241 17.8666 24.0829 17.2422 21.7675 16.5216C17.1384 15.0809 11.9244 13.2694 7.79551 11.7907C6.07615 11.175 6.07615 8.825 7.79551 8.20926C11.9244 6.7306 17.1384 4.9191 21.7675 3.47842C24.0829 2.75782 26.241 2.13342 28.0384 1.69014C29.8664 1.23928 31.2292 1 32 1C36.9706 1 41 5.02944 41 10Z" fill="url(#paint0_linear_15_8)" stroke="white" stroke-width="2"/>
<defs>
<linearGradient id="paint0_linear_15_8" x1="42" y1="10" x2="7.93309e-07" y2="10" gradientUnits="userSpaceOnUse">
<stop stop-color="#489DBB"/>
<stop offset="1" stop-color="#EEEADE"/>
</linearGradient>
</defs>
</svg>
